SplineFontDB: 3.0
FontName: Renner-it-MediumItalic
FullName: Renner* Medium Italic
FamilyName: Renner* Medium
Weight: Medium
Copyright: This typeface is licensed under the SIL open font license.
UComments: "2016-6-10: Created with FontForge (http://fontforge.org)"
Version: 002.100
ItalicAngle: -10
UnderlinePosition: -100
UnderlineWidth: 50
Ascent: 800
Descent: 200
InvalidEm: 0
LayerCount: 2
Layer: 0 0 "Back" 1
Layer: 1 0 "Fore" 0
XUID: [1021 31 -699969567 16188444]
FSType: 0
OS2Version: 0
OS2_WeightWidthSlopeOnly: 0
OS2_UseTypoMetrics: 1
CreationTime: 1465610489
ModificationTime: 1513972665
PfmFamily: 33
TTFWeight: 500
TTFWidth: 5
LineGap: 100
VLineGap: 0
OS2TypoAscent: 800
OS2TypoAOffset: 0
OS2TypoDescent: -200
OS2TypoDOffset: 0
OS2TypoLinegap: 100
OS2WinAscent: 900
OS2WinAOffset: 0
OS2WinDescent: 300
OS2WinDOffset: 0
HheadAscent: 900
HheadAOffset: 0
HheadDescent: -200
HheadDOffset: 0
OS2CapHeight: 700
OS2XHeight: 460
OS2Vendor: 'PfEd'
Lookup: 1 0 0 "alt a" { "less simple a"  } ['ss01' ('DFLT' <'dflt' > 'latn' <'dflt' > ) ]
Lookup: 258 0 0 "Lets get our kern on" { "kernin like nobodys business" [150,0,4] } ['kern' ('DFLT' <'dflt' > 'latn' <'dflt' > ) ]
MarkAttachClasses: 1
DEI: 91125
KernClass2: 15 14 "kernin like nobodys business"
 5 A L M
 7 D G O Q
 5 F P Y
 5 K X Z
 1 T
 1 U
 3 V W
 9 a c g q s
 7 b e o p
 7 d i j l
 3 f t
 5 h m n
 5 k x z
 7 r v w y
 3 A M
 7 C G O Q
 1 T
 1 U
 5 V W Y
 3 X Z
 9 m n p r s
 11 b h i j k l
 13 c d e g o q a
 3 f t
 7 u v w y
 3 x z
 12 period comma

StartChar: H
Encoding: 72 72 0
Width: 720
VWidth: 0
Flags: HMW
LayerCount: 2
Fore
SplineSet
175 330 m 1
 193 430 l 1
 673 430 l 1
 655 330 l 1
 175 330 l 1
663 700 m 1
 776 700 l 5
 653 0 l 5
 540 0 l 1
 663 700 l 1
193 700 m 1
 306 700 l 1
 183 0 l 1
 70 0 l 1
 193 700 l 1
EndSplineSet
EndChar

StartChar: O
Encoding: 79 79 1
Width: 810
VWidth: 0
Flags: HMWO
LayerCount: 2
Fore
SplineSet
200.383789062 293.770507812 m 0
 200.383789062 167.237304688 289.056640625 83 410 83 c 4
 569.122070312 83 733.798828125 231.501953125 733.798828125 408.087890625 c 0
 733.798828125 533.634765625 648.703125 617 524 617 c 4
 365.927734375 617 200.383789062 479.287109375 200.383789062 293.770507812 c 0
532 720 m 0
 713.900923273 720 848.097195612 605.967907573 848.097195612 417.380598929 c 0
 848.097195612 149.235986489 622.159379497 -20 401 -20 c 0
 215.340003175 -20 85.7076623991 103.103018926 85.7076623991 280.611351033 c 0
 85.7076623991 539.85488332 309.750532545 720 532 720 c 0
EndSplineSet
EndChar

StartChar: I
Encoding: 73 73 2
Width: 250
VWidth: 0
Flags: HMW
LayerCount: 2
Fore
SplineSet
193 700 m 1
 306 700 l 5
 183 0 l 5
 70 0 l 1
 193 700 l 1
EndSplineSet
EndChar

StartChar: C
Encoding: 67 67 3
Width: 680
VWidth: 0
Flags: HMW
LayerCount: 2
Fore
SplineSet
199.132901373 296.599532566 m 0
 199.132901373 168.781047023 288.209960938 97 400 97 c 4
 509 97 593 136 653 198 c 5
 630 67 l 5
 567 19 493 -10 391 -10 c 4
 192.938476562 -10 85.1533203125 110.475585938 85.1533203125 284.916015625 c 0
 85.1533203125 536.3984375 282.619140625 710 512 710 c 0
 614 710 686 681 733 633 c 1
 710 502 l 1
 672 564 602 603 503 603 c 0
 354.583007812 603 199.132901373 477.119780726 199.132901373 296.599532566 c 0
EndSplineSet
EndChar

StartChar: E
Encoding: 69 69 4
Width: 560
VWidth: 0
Flags: HMW
LayerCount: 2
Fore
SplineSet
142 0 m 1
 160 100 l 1
 513 100 l 1
 495 0 l 1
 142 0 l 1
248 600 m 1
 265 700 l 1
 618 700 l 1
 601 600 l 1
 248 600 l 1
200 330 m 1
 218 430 l 1
 551 430 l 1
 533 330 l 1
 200 330 l 1
193 700 m 1
 305 700 l 5
 182 0 l 5
 70 0 l 1
 193 700 l 1
EndSplineSet
EndChar

StartChar: F
Encoding: 70 70 6
Width: 510
VWidth: 0
Flags: HMW
LayerCount: 2
Fore
SplineSet
248 600 m 1
 265 700 l 1
 578 700 l 1
 561 600 l 1
 248 600 l 1
200 330 m 1
 218 430 l 1
 521 430 l 1
 503 330 l 1
 200 330 l 1
193 700 m 1
 306 700 l 5
 183 0 l 5
 70 0 l 1
 193 700 l 1
EndSplineSet
EndChar

StartChar: G
Encoding: 71 71 7
Width: 790
VWidth: 0
Flags: HMW
LayerCount: 2
Fore
SplineSet
823 360 m 1
 713 360 l 1
 717 380 l 1
 827 380 l 1
 823 360 l 1
484 280 m 1
 502 380 l 1
 717 380 l 1
 699 280 l 1
 484 280 l 1
823 360 m 1
 784 141 635 -10 401 -10 c 0
 211.900390625 -10 85.2666015625 97.9052734375 85.2666015625 286.447265625 c 0
 85.2666015625 542.708984375 303.424804688 710 532 710 c 1
 524 610 l 1
 345.061523438 610 196.912109375 481.767578125 196.912109375 294.53125 c 0
 196.912109375 163.158203125 288.52734375 90 409 90 c 0
 567 90 686 207 713 360 c 1
 823 360 l 1
722 489 m 1
 691 563 611 610 524 610 c 1
 532 710 l 1
 671 710 768 657 811 560 c 1
 722 489 l 1
EndSplineSet
EndChar

StartChar: T
Encoding: 84 84 8
Width: 490
VWidth: 0
Flags: HMW
LayerCount: 2
Fore
SplineSet
116 600 m 1
 133 700 l 1
 603 700 l 1
 586 600 l 1
 116 600 l 1
312 700 m 1
 424 700 l 5
 301 0 l 5
 189 0 l 1
 312 700 l 1
EndSplineSet
EndChar

StartChar: L
Encoding: 76 76 9
Width: 460
VWidth: 0
Flags: HMW
LayerCount: 2
Fore
SplineSet
142 0 m 1
 160 100 l 1
 473 100 l 1
 455 0 l 1
 142 0 l 1
193 700 m 1
 305 700 l 5
 182 0 l 5
 70 0 l 1
 193 700 l 1
EndSplineSet
EndChar

StartChar: D
Encoding: 68 68 10
Width: 690
VWidth: 0
Flags: HMW
LayerCount: 2
Fore
SplineSet
142 0 m 1
 160 100 l 1
 323 100 l 1
 315 0 l 5
 142 0 l 1
248 600 m 1
 265 700 l 1
 428 700 l 1
 421 600 l 1
 248 600 l 1
193 700 m 1
 306 700 l 1
 183 0 l 1
 70 0 l 1
 193 700 l 1
323 100 m 1
 484.322018507 100 617.78695242 212.393047792 617.78695242 411.527715643 c 4
 617.78695242 534.796902759 539.125976562 600 421 600 c 1
 428 700 l 1
 615.693757614 700 728.76953125 591.534179688 728.76953125 413.856445312 c 4
 728.76953125 137.716796875 534.551757812 0 315 0 c 5
 323 100 l 1
EndSplineSet
EndChar

StartChar: Q
Encoding: 81 81 11
Width: 810
VWidth: 0
Flags: HMW
LayerCount: 2
Fore
SplineSet
200.383789062 293.770507812 m 0
 200.383789062 167.237304688 289.056640625 83 410 83 c 0
 579.122070312 83 733.798828125 231.501953125 733.798828125 408.087890625 c 0
 733.798828125 533.634765625 648.703125 617 524 617 c 0
 355.927734375 617 200.383789062 479.287109375 200.383789062 293.770507812 c 0
532 720 m 0
 713.900923273 720 848.097195612 605.967907573 848.097195612 417.380598929 c 4
 848.097195612 149.235986489 622.159379497 -20 401 -20 c 0
 215.340003175 -20 85.7076623991 103.103018926 85.7076623991 280.611351033 c 0
 85.7076623991 539.85488332 309.750532545 720 532 720 c 0
432 300 m 5
 572 300 l 1
 829 0 l 1
 689 0 l 5
 432 300 l 5
EndSplineSet
EndChar

StartChar: A
Encoding: 65 65 12
Width: 710
VWidth: 0
Flags: HMW
LayerCount: 2
Fore
SplineSet
206 190 m 1
 223 290 l 1
 593 290 l 1
 576 190 l 1
 206 190 l 1
413 595 m 5
 485 720 l 5
 710 0 l 1
 585 0 l 1
 413 595 l 5
485 720 m 5
 518 595 l 5
 125 0 l 1
 0 0 l 1
 485 720 l 5
EndSplineSet
EndChar

StartChar: R
Encoding: 82 82 13
Width: 575
VWidth: 0
Flags: HMW
LayerCount: 2
Fore
SplineSet
343 270 m 1
 350 370 l 1
 434.985461926 370 501.335153747 417.588528191 501.335153747 510.870869478 c 0
 501.335153747 569.836842299 460.475585938 600 401 600 c 1
 408 700 l 1
 528.691558221 700 612.6171875 631.263671875 612.6171875 514.517578125 c 4
 612.6171875 358.109375 485.364257812 270 343 270 c 1
190 270 m 1
 207 370 l 1
 350 370 l 1
 343 270 l 1
 190 270 l 1
248 600 m 1
 265 700 l 1
 408 700 l 1
 401 600 l 1
 248 600 l 1
193 700 m 1
 303 700 l 1
 180 0 l 1
 70 0 l 1
 193 700 l 1
263 350 m 1
 387 350 l 1
 565 0 l 1
 441 0 l 1
 263 350 l 1
193 700 m 1
 303 700 l 1
 180 0 l 1
 70 0 l 1
 193 700 l 1
EndSplineSet
EndChar

StartChar: V
Encoding: 86 86 14
Width: 700
VWidth: 0
Flags: HMW
LayerCount: 2
Fore
SplineSet
413 105 m 5
 343 -20 l 5
 118 700 l 1
 236 700 l 1
 413 105 l 5
343 -20 m 5
 307 106 l 5
 698 700 l 1
 828 700 l 1
 343 -20 l 5
EndSplineSet
EndChar

StartChar: M
Encoding: 77 77 15
Width: 900
VWidth: 0
Flags: HMW
LayerCount: 2
Fore
SplineSet
225 550 m 1
 266 725 l 1
 525 110 l 5
 461 -15 l 5
 225 550 l 1
266 725 m 1
 301 505 l 1
 135 0 l 1
 20 0 l 1
 266 725 l 1
786 505 m 1
 896 725 l 1
 880 0 l 1
 770 0 l 1
 786 505 l 1
896 725 m 1
 860 505 l 1
 461 -15 l 5
 450 135 l 5
 896 725 l 1
EndSplineSet
EndChar

StartChar: W
Encoding: 87 87 16
Width: 1010
VWidth: 0
Flags: HMW
LayerCount: 2
Fore
SplineSet
770 135 m 1
 712 -25 l 1
 575 545 l 1
 636 725 l 1
 770 135 l 1
712 -25 m 1
 705 160 l 1
 1003 700 l 1
 1133 700 l 1
 712 -25 l 1
345 160 m 1
 282 -25 l 1
 123 700 l 1
 243 700 l 1
 345 160 l 1
282 -25 m 1
 270 135 l 1
 636 725 l 1
 645 545 l 1
 282 -25 l 1
EndSplineSet
EndChar

StartChar: N
Encoding: 78 78 17
Width: 785
VWidth: 0
Flags: HMW
LayerCount: 2
Fore
SplineSet
189 570 m 5
 201 725 l 5
 719 130 l 5
 707 -25 l 5
 189 570 l 5
725 700 m 5
 838 700 l 5
 707 -25 l 5
 615 95 l 5
 725 700 l 5
201 725 m 5
 293 605 l 5
 183 0 l 5
 70 0 l 5
 201 725 l 5
EndSplineSet
EndChar

StartChar: a
Encoding: 97 97 18
Width: 595
VWidth: 0
Flags: HMW
LayerCount: 2
Fore
SplineSet
348 470 m 0
 445.833984375 470 506.756835938 396.90234375 506.756835938 283.33984375 c 0
 506.756835938 103.098632812 387.576171875 -10 259 -10 c 0
 139.258789062 -10 64.9521484375 60.1396484375 64.9521484375 184.85546875 c 0
 64.9521484375 375.504882812 201.991210938 470 348 470 c 0
172.788085938 190.149414062 m 0
 172.788085938 114.921875 221.831054688 85 296 85 c 0
 372.916015625 85 468.428710938 140.79296875 468.428710938 266.470703125 c 0
 468.428710938 347.291015625 412.408203125 375 351 375 c 0
 258.721679688 375 172.788085938 306.749023438 172.788085938 190.149414062 c 0
506 460 m 1
 613 460 l 1
 532 0 l 1
 425 0 l 1
 506 460 l 1
EndSplineSet
Substitution2: "less simple a" a.alt
EndChar

StartChar: X
Encoding: 88 88 19
Width: 605
VWidth: 0
Flags: HMW
LayerCount: 2
Fore
SplineSet
155 700 m 1
 276 700 l 1
 598 0 l 1
 477 0 l 1
 155 700 l 1
581 700 m 1
 710 700 l 5
 132 0 l 5
 3 0 l 1
 581 700 l 1
EndSplineSet
EndChar

StartChar: K
Encoding: 75 75 20
Width: 604
VWidth: 0
Flags: HMW
LayerCount: 2
Fore
SplineSet
212 380 m 1
 346 380 l 1
 604 0 l 1
 470 0 l 1
 212 380 l 1
578 700 m 1
 712 700 l 1
 349 370 l 1
 215 370 l 1
 578 700 l 1
193 700 m 1
 305 700 l 1
 182 0 l 1
 70 0 l 1
 193 700 l 1
EndSplineSet
EndChar

StartChar: Y
Encoding: 89 89 21
Width: 565
VWidth: 0
Flags: HMW
LayerCount: 2
Fore
SplineSet
290 360 m 1
 397 360 l 1
 334 0 l 1
 227 0 l 1
 290 360 l 1
118 700 m 1
 236 700 l 5
 375 325 l 5
 286 260 l 1
 118 700 l 1
570 700 m 1
 693 700 l 1
 361 260 l 1
 289 325 l 1
 570 700 l 1
EndSplineSet
EndChar

StartChar: B
Encoding: 66 66 22
Width: 573
VWidth: 0
Flags: HMW
LayerCount: 2
Fore
SplineSet
330 370 m 1
 341 430 l 1
 426.072499306 430 470.942898113 462.986068387 470.942898113 535.251490566 c 0
 470.942898113 577.97594088 440.716796875 600 381 600 c 5
 388 700 l 1
 509.234032475 700 582.88671875 642.741210938 582.88671875 542.124023438 c 0
 582.88671875 416.973632812 472.840811695 370 330 370 c 1
295 0 m 1
 303 100 l 1
 388.365691731 100 458.18296234 146.555657135 458.18296234 239.317079179 c 0
 458.18296234 299.306910032 413.970520386 330 343 330 c 1
 354 400 l 1
 475.608398438 400 568.381835938 350.501953125 568.381835938 236.387695312 c 0
 568.381835938 71.40625 435.977539062 0 295 0 c 1
142 0 m 1
 160 100 l 1
 303 100 l 1
 295 0 l 1
 142 0 l 1
248 600 m 1
 265 700 l 1
 388 700 l 1
 381 600 l 1
 248 600 l 1
200 330 m 1
 218 430 l 1
 361 430 l 1
 343 330 l 1
 200 330 l 1
193 700 m 1
 306 700 l 1
 183 0 l 1
 70 0 l 1
 193 700 l 1
EndSplineSet
EndChar

StartChar: Z
Encoding: 90 90 23
Width: 570
VWidth: 0
Flags: HMW
LayerCount: 2
Fore
SplineSet
15 0 m 1
 118 100 l 1
 538 100 l 1
 520 0 l 1
 15 0 l 1
156 600 m 1
 173 700 l 1
 678 700 l 1
 576 600 l 1
 156 600 l 1
549 700 m 1
 678 700 l 1
 144 0 l 5
 15 0 l 1
 549 700 l 1
EndSplineSet
EndChar

StartChar: o
Encoding: 111 111 24
Width: 566
VWidth: 0
Flags: HMW
LayerCount: 2
Fore
SplineSet
358 470 m 0
 502.4140625 470 581.2890625 390.237304688 581.2890625 267.907226562 c 0
 581.2890625 97.9326171875 448.439453125 -10 289 -10 c 4
 174.709960938 -10 66.67578125 59.6044921875 66.67578125 191.727539062 c 0
 66.67578125 371.810546875 218.430664062 470 358 470 c 0
174.033200178 197.244457486 m 0
 174.033200178 124.014085077 221.614257812 85 296 85 c 4
 387.69921875 85 473.92448316 151.637073245 473.92448316 262.319161751 c 0
 473.92448316 335.79113238 425.533203125 375 351 375 c 0
 259.154296875 375 174.033200178 308.045406139 174.033200178 197.244457486 c 0
EndSplineSet
EndChar

StartChar: J
Encoding: 74 74 25
Width: 245
VWidth: 0
Flags: HMW
LayerCount: 2
Fore
SplineSet
167 -50 m 5
 68 -17 l 5
 193 700 l 1
 301 700 l 1
 167 -50 l 5
-90 -61 m 5
 -80 -84 -50 -107 -14 -107 c 4
 16 -107 56 -83 68 -17 c 5
 167 -50 l 5
 148 -159 77 -210 -27 -210 c 4
 -100 -210 -144 -175 -155 -155 c 5
 -90 -61 l 5
EndSplineSet
EndChar

StartChar: t
Encoding: 116 116 26
Width: 255
VWidth: 0
Flags: HMW
LayerCount: 2
Fore
SplineSet
81 460 m 1
 336 460 l 1
 319 365 l 1
 64 365 l 1
 81 460 l 1
182 620 m 1
 291 620 l 5
 182 0 l 5
 73 0 l 1
 182 620 l 1
EndSplineSet
EndChar

StartChar: d
Encoding: 100 100 27
Width: 595
VWidth: 0
Flags: HMW
LayerCount: 2
Fore
SplineSet
348 470 m 0
 445.833984375 470 506.756835938 396.90234375 506.756835938 283.33984375 c 0
 506.756835938 103.098632812 387.576171875 -10 259 -10 c 0
 139.258789062 -10 64.9521484375 60.1396484375 64.9521484375 184.85546875 c 0
 64.9521484375 375.504882812 201.991210938 470 348 470 c 0
172.788085938 190.149414062 m 0
 172.788085938 114.921875 221.831054688 85 296 85 c 0
 372.916015625 85 468.428710938 140.79296875 468.428710938 266.470703125 c 0
 468.428710938 347.291015625 412.408203125 375 351 375 c 0
 258.721679688 375 172.788085938 306.749023438 172.788085938 190.149414062 c 0
563 780 m 1
 670 780 l 1
 532 0 l 1
 425 0 l 1
 563 780 l 1
EndSplineSet
EndChar

StartChar: l
Encoding: 108 108 28
Width: 235
VWidth: 0
Flags: HMW
LayerCount: 2
Fore
SplineSet
202 780 m 5
 309 780 l 1
 171 0 l 1
 64 0 l 5
 202 780 l 5
EndSplineSet
EndChar

StartChar: i
Encoding: 105 105 29
Width: 226
VWidth: 0
Flags: HMW
LayerCount: 2
Fore
SplineSet
158 640 m 4
 158 676 188 705 226 705 c 4
 264 705 294 676 294 640 c 4
 294 604 264 575 226 575 c 4
 188 575 158 604 158 640 c 4
141 460 m 1
 249 460 l 1
 168 0 l 1
 60 0 l 1
 141 460 l 1
EndSplineSet
EndChar

StartChar: r
Encoding: 114 114 30
Width: 368
VWidth: 0
Flags: HMW
LayerCount: 2
Fore
SplineSet
256 460 m 1
 175 0 l 1
 62 0 l 1
 143 460 l 1
 256 460 l 1
381 349 m 1
 362 365 344 372 318 372 c 0
 263 372 234 333 222 267 c 1
 186 267 l 1
 205 376 295 467 360 467 c 0
 393 467 420 455 440 435 c 1
 381 349 l 1
EndSplineSet
EndChar

StartChar: c
Encoding: 99 99 31
Width: 493
VWidth: 0
Flags: HMW
LayerCount: 2
Fore
SplineSet
174.177734375 198.619140625 m 0
 174.177734375 128.455078125 219.565429688 88 307 88 c 4
 381 88 442 126 471 171 c 5
 448 39 l 5
 410 5 352 -10 289 -10 c 4
 143.530273438 -10 63.115234375 67.1513671875 63.115234375 186.069335938 c 0
 63.115234375 359.411132812 201.067382812 470 368 470 c 0
 431 470 493 454 519 421 c 1
 496 289 l 1
 483 334 424 372 370 372 c 0
 252.9609375 372 174.177734375 305.3046875 174.177734375 198.619140625 c 0
EndSplineSet
EndChar

StartChar: b
Encoding: 98 98 32
Width: 595
VWidth: 0
Flags: HMW
LayerCount: 2
Fore
SplineSet
308 780 m 1
 170 0 l 1
 62 0 l 1
 200 780 l 1
 308 780 l 1
328 -10 m 4
 230.166015625 -10 169.243164062 63.09765625 169.243164062 176.66015625 c 0
 169.243164062 356.901367188 288.423828125 470 417 470 c 0
 536.741210938 470 611.047851562 399.860351562 611.047851562 275.14453125 c 0
 611.047851562 84.4951171875 474.008789062 -10 328 -10 c 4
503.211914062 269.850585938 m 0
 503.211914062 345.078125 454.168945312 375 380 375 c 0
 303.083984375 375 207.571154619 319.207146455 207.571154619 193.529027679 c 0
 207.571154619 122.709361395 263.591796875 85 325 85 c 0
 417.278320312 85 503.211914062 153.250976562 503.211914062 269.850585938 c 0
EndSplineSet
EndChar

StartChar: p
Encoding: 112 112 33
Width: 595
VWidth: 0
Flags: HMW
LayerCount: 2
Fore
SplineSet
328 -10 m 0
 230.166015625 -10 169.243164062 63.09765625 169.243164062 176.66015625 c 0
 169.243164062 356.901367188 288.423828125 470 417 470 c 0
 536.741210938 470 611.047851562 404.860351562 611.047851562 280.14453125 c 0
 611.047851562 89.4951171875 474.008789062 -10 328 -10 c 0
503.211914062 269.850585938 m 4
 503.211914062 345.078125 454.168945312 375 380 375 c 0
 303.083984375 375 207.571289062 319.20703125 207.571289062 193.529296875 c 0
 207.571289062 112.708984375 263.591796875 85 325 85 c 0
 417.278320312 85 503.211914062 153.250976562 503.211914062 269.850585938 c 4
131 -220 m 1
 24 -220 l 1
 144 460 l 1
 251 460 l 1
 131 -220 l 1
EndSplineSet
EndChar

StartChar: q
Encoding: 113 113 34
Width: 595
VWidth: 0
Flags: HMW
LayerCount: 2
Fore
SplineSet
386 -220 m 1
 506 460 l 1
 614 460 l 1
 494 -220 l 1
 386 -220 l 1
348 470 m 4
 445.833984375 470 506.756835938 396.90234375 506.756835938 283.33984375 c 0
 506.756835938 103.098632812 387.576171875 -10 259 -10 c 0
 139.258789062 -10 64.9521484375 60.1396484375 64.9521484375 184.85546875 c 0
 64.9521484375 375.504882812 201.991210938 470 348 470 c 4
172.788085938 190.149414062 m 0
 172.788085938 114.921875 221.831054688 85 296 85 c 0
 372.916015625 85 468.428710938 140.79296875 468.428710938 266.470703125 c 0
 468.428710938 347.291015625 412.408203125 375 351 375 c 4
 258.721679688 375 172.788085938 306.749023438 172.788085938 190.149414062 c 0
EndSplineSet
EndChar

StartChar: h
Encoding: 104 104 35
Width: 540
VWidth: 0
Flags: HMW
LayerCount: 2
Fore
SplineSet
531 290 m 1
 480 0 l 1
 373 0 l 1
 422 280 l 1
 531 290 l 1
308 780 m 1
 170 0 l 1
 63 0 l 1
 201 780 l 1
 308 780 l 1
531 290 m 5
 422 280 l 5
 435 356 410 375 355 375 c 4
 295 375 231 346 219 280 c 5
 183 280 l 5
 202 389 287 470 392 470 c 4
 477 470 556 429 531 290 c 5
EndSplineSet
EndChar

StartChar: n
Encoding: 110 110 36
Width: 540
VWidth: 0
Flags: HMW
LayerCount: 2
Fore
SplineSet
531 290 m 5
 422 280 l 5
 435 356 410 375 355 375 c 4
 295 375 231 346 219 280 c 5
 183 280 l 5
 202 389 287 470 392 470 c 4
 477 470 556 429 531 290 c 5
531 290 m 1
 480 0 l 1
 373 0 l 1
 422 280 l 1
 531 290 l 1
251 460 m 1
 170 0 l 1
 63 0 l 1
 144 460 l 1
 251 460 l 1
EndSplineSet
EndChar

StartChar: m
Encoding: 109 109 37
Width: 810
VWidth: 0
Flags: HMW
LayerCount: 2
Fore
SplineSet
803 300 m 1
 750 0 l 1
 645 0 l 1
 694 280 l 1
 803 300 l 1
803 300 m 1
 694 280 l 1
 706 346 690 375 635 375 c 4
 565 375 519 336 509 280 c 1
 463 280 l 1
 482 389 577 470 672 470 c 4
 777 470 824 419 803 300 c 1
511 290 m 1
 460 0 l 1
 355 0 l 1
 404 280 l 1
 511 290 l 1
251 460 m 1
 170 0 l 1
 65 0 l 1
 146 460 l 1
 251 460 l 1
511 290 m 1
 404 280 l 1
 416 346 400 375 345 375 c 4
 275 375 229 336 219 280 c 1
 183 280 l 1
 202 389 297 470 382 470 c 4
 487 470 532 409 511 290 c 1
EndSplineSet
EndChar

StartChar: k
Encoding: 107 107 38
Width: 485
VWidth: 0
Flags: HMW
LayerCount: 2
Fore
SplineSet
198 270 m 5
 328 270 l 5
 490 0 l 1
 360 0 l 1
 198 270 l 5
406 460 m 1
 551 460 l 1
 328 270 l 5
 183 270 l 5
 406 460 l 1
203 780 m 1
 311 780 l 1
 173 0 l 1
 65 0 l 1
 203 780 l 1
EndSplineSet
EndChar

StartChar: u
Encoding: 117 117 39
Width: 540
VWidth: 0
Flags: HMW
LayerCount: 2
Fore
SplineSet
90 170 m 5
 199 180 l 5
 186 104 211 85 266 85 c 4
 326 85 390 114 402 180 c 5
 438 180 l 5
 419 71 334 -10 229 -10 c 4
 144 -10 65 31 90 170 c 5
90 170 m 1
 141 460 l 1
 248 460 l 1
 199 180 l 1
 90 170 l 1
370 0 m 1
 451 460 l 1
 558 460 l 1
 477 0 l 1
 370 0 l 1
EndSplineSet
EndChar

StartChar: e
Encoding: 101 101 40
Width: 535
VWidth: 0
Flags: HMW
LayerCount: 2
Fore
SplineSet
172 205 m 1
 187 279 l 5
 535 279 l 5
 539 205 l 1
 172 205 l 1
539 205 m 1
 439 250 l 1
 441.389567353 263.700186158 442.586372438 276.588278856 442.586372438 288.575336128 c 4
 442.586372438 345.83447723 414.255859375 380 347 380 c 0
 280.111328125 380 203.656686597 333.693261896 186.094820544 270 c 5
 204 270 l 1
 187 230 l 1
 177 230 l 1
 174.692605215 216.970005922 173.582665777 204.621640271 173.582665777 193.009913047 c 0
 173.582665777 119.070886618 208.586914062 85 276 85 c 0
 333 85 398 104 438 149 c 1
 521 97 l 1
 463 32 388 -10 269 -10 c 0
 134.924804688 -10 65.9453125 63.0537109375 65.9453125 185.44140625 c 0
 65.9453125 358.712890625 195.325195312 470 353 470 c 0
 474.546875 470 552.099337364 407.639488953 552.099337364 293.675429597 c 0
 552.099337364 262.253097631 547.796712983 233.589317196 539 205 c 1
EndSplineSet
EndChar

StartChar: g
Encoding: 103 103 41
Width: 595
VWidth: 0
Flags: HMW
LayerCount: 2
Fore
SplineSet
348 470 m 0
 445.833984375 470 506.756835938 396.90234375 506.756835938 283.33984375 c 0
 506.756835938 103.098632812 387.576171875 -10 259 -10 c 0
 139.258789062 -10 64.9521484375 60.1396484375 64.9521484375 184.85546875 c 4
 64.9521484375 375.504882812 201.991210938 470 348 470 c 0
172.788085938 190.149414062 m 4
 172.788085938 114.921875 221.831054688 85 296 85 c 0
 372.916015625 85 468.428710938 140.79296875 468.428710938 266.470703125 c 0
 468.428710938 347.291015625 412.408203125 375 351 375 c 0
 258.721679688 375 172.788085938 306.749023438 172.788085938 190.149414062 c 4
29 -30 m 1
 135 -30 l 1
 135 -86 152 -140 242 -140 c 0
 312 -140 408 -96 427 10 c 1
 532 10 l 1
 502 -159 370 -240 235 -240 c 0
 90 -240 29 -159 29 -30 c 1
427 10 m 1
 506 460 l 1
 611 460 l 1
 532 10 l 1
 427 10 l 1
EndSplineSet
EndChar

StartChar: f
Encoding: 102 102 42
Width: 314
VWidth: 0
Flags: HMW
LayerCount: 2
Fore
SplineSet
101 460 m 1
 376 460 l 1
 359 365 l 1
 84 365 l 1
 101 460 l 1
186 620 m 5
 289 610 l 5
 180 0 l 1
 75 0 l 1
 186 620 l 5
401 660 m 5
 391 683 372 690 356 690 c 4
 326 690 299 666 289 610 c 5
 186 620 l 5
 205 729 255 790 364 790 c 4
 427 790 456 763 467 743 c 5
 401 660 l 5
EndSplineSet
EndChar

StartChar: s
Encoding: 115 115 43
Width: 433
VWidth: 0
Flags: HMW
LayerCount: 2
Fore
SplineSet
139 171 m 5
 141 115 186 85 233 85 c 0
 280.670898438 85 312.850976722 96.5049610177 312.850976722 132.445930976 c 4
 312.850976722 166.409998012 277.827148438 188.390625 231 204 c 0
 176.26953125 222.243164062 109.059570312 254.959960938 109.059570312 337.123046875 c 0
 109.059570312 429.51953125 200.48046875 470 288 470 c 0
 371 470 447 421 456 370 c 1
 365 329 l 1
 350 357 320 379 283 379 c 0
 251.192382812 379 215.538281504 369.306071938 215.538281504 344.07815616 c 0
 215.538281504 319.63392321 250.588015831 301.577166136 305 280 c 0
 359.678830864 258.487017365 421.588867188 224.921875 421.588867188 138.333984375 c 4
 421.588867188 37.490234375 337.1328125 -10 231 -10 c 0
 116 -10 48 58 47 133 c 5
 139 171 l 5
EndSplineSet
EndChar

StartChar: y
Encoding: 121 121 44
Width: 480
VWidth: 0
Flags: HMW
LayerCount: 2
Fore
SplineSet
231 114 m 0
 293 114 l 0
 571 460 l 1
 151 -220 l 1
 29 -220 l 1
 231 114 l 0
449 460 m 1
 571 460 l 1
 252 -15 l 1
 233 85 l 1
 449 460 l 1
71 460 m 1
 187 460 l 5
 271 85 l 5
 192 -15 l 1
 71 460 l 1
EndSplineSet
EndChar

StartChar: w
Encoding: 119 119 45
Width: 695
VWidth: 0
Flags: HMW
LayerCount: 2
Fore
SplineSet
673 460 m 1
 781 460 l 1
 487 -25 l 1
 482 135 l 1
 673 460 l 1
379 325 m 5
 434 485 l 5
 532 135 l 1
 487 -25 l 1
 379 325 l 5
434 485 m 5
 441 325 l 5
 197 -25 l 1
 201 135 l 1
 434 485 l 5
76 460 m 1
 183 460 l 1
 252 135 l 1
 197 -25 l 1
 76 460 l 1
EndSplineSet
EndChar

StartChar: v
Encoding: 118 118 46
Width: 460
VWidth: 0
Flags: HMW
LayerCount: 2
Fore
SplineSet
426 460 m 1
 546 460 l 1
 222 -25 l 5
 226 140 l 5
 426 460 l 1
76 460 m 1
 188 460 l 1
 268 140 l 5
 222 -25 l 5
 76 460 l 1
EndSplineSet
EndChar

StartChar: x
Encoding: 120 120 47
Width: 470
VWidth: 0
Flags: HMW
LayerCount: 2
Fore
SplineSet
87 460 m 1
 205 460 l 5
 474 0 l 5
 356 0 l 1
 87 460 l 1
424 460 m 1
 548 460 l 1
 117 0 l 1
 -7 0 l 1
 424 460 l 1
EndSplineSet
EndChar

StartChar: z
Encoding: 122 122 48
Width: 465
VWidth: 0
Flags: HMW
LayerCount: 2
Fore
SplineSet
107 95 m 1
 447 95 l 1
 430 0 l 1
 10 0 l 1
 107 95 l 1
121 460 m 1
 541 460 l 1
 454 365 l 1
 104 365 l 1
 121 460 l 1
422 460 m 1
 541 460 l 1
 129 0 l 5
 10 0 l 1
 422 460 l 1
EndSplineSet
EndChar

StartChar: j
Encoding: 106 106 49
Width: 226
VWidth: 0
Flags: HMW
LayerCount: 2
Fore
SplineSet
-61 -100 m 5
 -51 -123 -32 -130 -16 -130 c 4
 14 -130 39 -106 49 -50 c 5
 154 -60 l 5
 135 -169 85 -230 -24 -230 c 4
 -87 -230 -116 -203 -127 -183 c 5
 -61 -100 l 5
158 640 m 0
 158 676 188 705 226 705 c 0
 264 705 294 676 294 640 c 0
 294 604 264 575 226 575 c 0
 188 575 158 604 158 640 c 0
154 -60 m 5
 49 -50 l 5
 141 460 l 1
 247 460 l 1
 154 -60 l 5
EndSplineSet
EndChar

StartChar: P
Encoding: 80 80 50
Width: 548
VWidth: 0
Flags: HMW
LayerCount: 2
Fore
SplineSet
343 270 m 1
 350 370 l 1
 434.985461926 370 501.335153747 417.588528191 501.335153747 510.870869478 c 0
 501.335153747 569.836842299 460.475585938 600 401 600 c 1
 408 700 l 1
 528.691558221 700 612.6171875 631.263671875 612.6171875 514.517578125 c 4
 612.6171875 358.109375 485.364257812 270 343 270 c 1
190 270 m 1
 207 370 l 1
 350 370 l 1
 343 270 l 1
 190 270 l 1
248 600 m 1
 265 700 l 1
 408 700 l 1
 401 600 l 1
 248 600 l 1
193 700 m 1
 303 700 l 1
 180 0 l 1
 70 0 l 1
 193 700 l 1
EndSplineSet
EndChar

StartChar: U
Encoding: 85 85 51
Width: 636
VWidth: 0
Flags: HMW
LayerCount: 2
Fore
SplineSet
584 700 m 1
 694 700 l 1
 612 230 l 1
 502 230 l 1
 584 700 l 1
188 700 m 1
 298 700 l 1
 216 230 l 1
 106 230 l 1
 188 700 l 1
319 -20 m 4
 181.645507812 -20 100.94752616 50.1997523339 100.94752616 175.015609449 c 0
 100.94752616 192.309107756 102.592638457 210.651054093 106 230 c 1
 216 230 l 1
 213.973968073 218.384083618 212.969576593 207.169525983 212.969576593 196.459820903 c 0
 212.969576593 127.878783305 249.15625 80 327 80 c 0
 417 80 487 144 502 230 c 1
 612 230 l 1
 584 71 474 -20 319 -20 c 4
EndSplineSet
EndChar

StartChar: S
Encoding: 83 83 52
Width: 577
VWidth: 0
Flags: HMW
LayerCount: 2
Fore
SplineSet
528 504 m 1
 508 562 482 619 402 619 c 0
 339.682617188 619 290.600095777 570.487657839 290.600095777 519.098126886 c 0
 290.600095777 463.584635745 352.905131751 437.71668239 422 411 c 0
 484.090733201 387.603491837 574.5234375 338.294921875 574.5234375 218.826171875 c 0
 574.5234375 62.6884765625 462.41796875 -20 317 -20 c 0
 162 -20 90 63 66 178 c 1
 165 236 l 1
 190 140 234 85 321 85 c 4
 397.024414062 85 458.129362729 129.639738855 458.129362729 205.880903795 c 0
 458.129362729 278.057913369 388.236899246 303.615065625 320 330 c 0
 261.354345451 352.55602098 175.845703125 391.975585938 175.845703125 514.698242188 c 0
 175.845703125 647.100585938 286.373046875 720 419 720 c 0
 552 720 609 637 624 566 c 1
 528 504 l 1
EndSplineSet
EndChar

StartChar: at
Encoding: 64 64 53
Width: 770
VWidth: 0
Flags: HMW
LayerCount: 2
Fore
SplineSet
366 60 m 1
 456 60 512 65 585 107 c 1
 625 36 l 1
 560 7 510 -20 366 -20 c 1
 366 60 l 1
463 540 m 0
 528.416015625 540 561.780171395 492.02427101 561.780171395 429.348551755 c 0
 561.780171395 265.627783599 458.147460938 140 363 140 c 0
 279.131835938 140 231.696289062 203.62109375 231.696289062 282.641601562 c 0
 231.696289062 432.512695312 375.1796875 540 463 540 c 0
329.10389423 288.970227868 m 0
 329.10389423 252.712642086 347.537948337 225 388 225 c 0
 435.580535789 225 522.141146598 297.019206529 522.141146598 392.308441319 c 0
 522.141146598 436.933101784 492.705329289 455 458 455 c 0
 403.494654776 455 329.10389423 384.619425802 329.10389423 288.970227868 c 0
532 720 m 0
 712.797851562 720 818.765625 585.686523438 818.765625 444.44921875 c 0
 818.765625 250.780273438 675.479923069 130 574 130 c 0
 503 130 475 194 497 260 c 0
 501 271 481 251 485 260 c 2
 577 520 l 1
 671 520 l 1
 587 279 l 2
 585 272 581 260 580 252 c 0
 576 228 581 216 604 216 c 0
 643.277235036 216 728.690375483 314.43834149 728.690375483 442.925987465 c 0
 728.690375483 552.555686112 664.593471704 640 528 640 c 4
 337.503984705 640 164.902992841 477.29497926 164.902992841 254.975328931 c 0
 164.902992841 131.536204013 238.901977405 60 366 60 c 1
 366 -20 l 1
 169.842773438 -20 74.1943359375 96.6962890625 74.1943359375 255.454101562 c 0
 74.1943359375 512.442382812 293.409179688 720 532 720 c 0
EndSplineSet
EndChar

StartChar: period
Encoding: 46 46 54
Width: 276
VWidth: 0
Flags: HMW
LayerCount: 2
Fore
SplineSet
70 40 m 4
 70 76 100 105 138 105 c 4
 176 105 206 76 206 40 c 4
 206 4 176 -25 138 -25 c 4
 100 -25 70 4 70 40 c 4
EndSplineSet
EndChar

StartChar: comma
Encoding: 44 44 55
Width: 308
VWidth: 0
Flags: HMW
LayerCount: 2
Fore
SplineSet
155 110 m 1
 248 76 l 5
 89 -174 l 5
 22 -149 l 1
 155 110 l 1
EndSplineSet
EndChar

StartChar: exclam
Encoding: 33 33 59
Width: 300
VWidth: 0
Flags: HMW
LayerCount: 2
Fore
SplineSet
208 700 m 1
 338 700 l 1
 215 200 l 5
 135 200 l 5
 208 700 l 1
EndSplineSet
Refer: 54 46 N 1 0 0 1 12 0 2
EndChar

StartChar: quotesingle
Encoding: 39 39 60
Width: 295
VWidth: 0
Flags: HMW
LayerCount: 2
Fore
SplineSet
263 700 m 1
 378 700 l 5
 231 400 l 1
 166 400 l 1
 263 700 l 1
EndSplineSet
EndChar

StartChar: numbersign
Encoding: 35 35 61
Width: 605
VWidth: 0
Flags: HMW
LayerCount: 2
Fore
SplineSet
141 430 m 1
 156 515 l 1
 651 515 l 1
 636 430 l 1
 141 430 l 1
79 190 m 1
 93 275 l 5
 588 275 l 5
 574 190 l 1
 79 190 l 1
568 700 m 1
 663 700 l 1
 370 0 l 1
 275 0 l 1
 568 700 l 1
358 700 m 1
 453 700 l 1
 160 0 l 1
 65 0 l 1
 358 700 l 1
EndSplineSet
EndChar

StartChar: hyphen
Encoding: 45 45 62
Width: 210
VWidth: 0
Flags: HMW
LayerCount: 2
Fore
SplineSet
43 190 m 1
 51 285 l 5
 251 285 l 5
 243 190 l 1
 43 190 l 1
EndSplineSet
EndChar

StartChar: bar
Encoding: 124 124 64
Width: 299
VWidth: 0
Flags: HMW
LayerCount: 2
Fore
SplineSet
237 785 m 5
 338 785 l 1
 162 -215 l 1
 61 -215 l 5
 237 785 l 5
EndSplineSet
EndChar

StartChar: zero
Encoding: 48 48 65
Width: 610
VWidth: 0
Flags: HMW
LayerCount: 2
Fore
SplineSet
193.618573259 261.421038251 m 0
 193.618573259 149.342667497 240.107421875 80 309 80 c 4
 424.3984375 80 540.283224646 245.000649362 540.283224646 437.672247588 c 0
 540.283224646 550.283224646 503.104492188 620 424 620 c 4
 298.426757812 620 193.618573259 454.075683601 193.618573259 261.421038251 c 0
432 720 m 0
 562.59400978 720 650.759577663 611.411953789 650.759577663 444.851614123 c 0
 650.759577663 182.429653923 474.183610396 -20 301 -20 c 0
 170.568861966 -20 83.1777351534 88.3173615745 83.1777351534 254.525473846 c 0
 83.1777351534 517.003912735 258.652854535 720 432 720 c 0
EndSplineSet
EndChar

StartChar: one
Encoding: 49 49 66
Width: 485
VWidth: 0
Flags: HMW
LayerCount: 2
Fore
SplineSet
197 552 m 1
 216 660 l 1
 493 725 l 1
 419 617 l 1
 197 552 l 1
373 685 m 5
 493 725 l 1
 365 0 l 1
 252 0 l 5
 373 685 l 5
EndSplineSet
EndChar

StartChar: two
Encoding: 50 50 67
Width: 574
VWidth: 0
Flags: HMW
LayerCount: 2
Fore
SplineSet
64 0 m 1
 152 100 l 1
 562 100 l 1
 544 0 l 1
 64 0 l 1
503 294 m 2
 151 0 l 1
 20 0 l 1
 408 335 l 2
 485.361099749 401.16409847 528.815011873 455.663038455 528.815011873 536.430404636 c 0
 528.815011873 584.64734375 501.357421875 621 431 621 c 4
 351 621 268 556 251 460 c 1
 146 460 l 1
 171 609 289 721 444 721 c 0
 580.673828125 721 638.041015625 628.583984375 638.041015625 541.221679688 c 0
 638.041015625 415.399414062 572.178710938 351.98828125 503 294 c 2
EndSplineSet
EndChar

StartChar: four
Encoding: 52 52 68
Width: 618
VWidth: 0
Flags: HMW
LayerCount: 2
Fore
SplineSet
31 120 m 1
 118 215 l 1
 626 215 l 1
 609 120 l 1
 31 120 l 1
141 120 m 1
 31 120 l 1
 612 760 l 1
 586 610 l 1
 141 120 l 1
474 550 m 5
 612 760 l 1
 478 0 l 1
 377 0 l 5
 474 550 l 5
EndSplineSet
EndChar

StartChar: slash
Encoding: 47 47 69
Width: 635
VWidth: 0
Flags: HMW
LayerCount: 2
Fore
SplineSet
638 700 m 1
 743 700 l 1
 94 -150 l 1
 -11 -150 l 1
 638 700 l 1
EndSplineSet
EndChar

StartChar: backslash
Encoding: 92 92 70
Width: 535
VWidth: 0
Flags: HMW
LayerCount: 2
Fore
SplineSet
138 700 m 1
 240 700 l 1
 520 0 l 1
 418 0 l 5
 138 700 l 1
EndSplineSet
EndChar

StartChar: eight
Encoding: 56 56 71
Width: 546
VWidth: 0
Flags: HMW
LayerCount: 2
Fore
SplineSet
390 720 m 0
 502.608398438 720 577.352539062 650.291992188 577.352539062 552.896484375 c 0
 577.352539062 417.959960938 459.124724542 355 336 355 c 0
 232.936591469 355 154.771484375 406.765625 154.771484375 501.09375 c 0
 154.771484375 643.447265625 279.208984375 720 390 720 c 0
259.771883854 492.409184332 m 0
 259.771883854 444.895131514 289.806821889 415 346 415 c 0
 417.170105584 415 468.422114241 464.626253994 468.422114241 541.308135908 c 0
 468.422114241 595.991053746 431.0546875 625 383 625 c 4
 314.147460938 625 259.771883854 576.795871313 259.771883854 492.409184332 c 0
342 390 m 0
 446.283586734 390 543.166015625 335.727539062 543.166015625 239.418945312 c 0
 543.166015625 86.7783203125 407.938476562 -20 279 -20 c 0
 159.075195312 -20 70.185546875 47.865234375 70.185546875 163.453125 c 0
 70.185546875 311.831054688 216.724825263 390 342 390 c 0
179.568069001 177.834512726 m 0
 179.568069001 113.174902066 224.214158527 75 286 75 c 0
 359.074041441 75 438.127644627 132.800028683 438.127644627 227.855372365 c 0
 438.127644627 287.270579283 393.267963571 330 331 330 c 0
 254.398033101 330 179.568069001 266.483969909 179.568069001 177.834512726 c 0
EndSplineSet
EndChar

StartChar: three
Encoding: 51 51 73
Width: 546
VWidth: 0
Flags: HMW
LayerCount: 2
Fore
SplineSet
314 345 m 1
 325 410 l 1
 442.815078851 410 473.853586952 463.383482053 473.853586952 545.561331472 c 0
 473.853586952 590.436493947 450.896069899 620 397 620 c 0
 332 620 286 592 274 526 c 1
 173 526 l 1
 193 640 285 720 405 720 c 0
 511.284179688 720 582.069335938 659.397460938 582.069335938 560.998046875 c 4
 582.069335938 401.421875 473.038085938 345 314 345 c 1
279 -20 m 0
 155.413085938 -20 79.4925282681 50.9134551924 79.4925282681 145.962565443 c 0
 79.4925282681 158.585863924 80.6552398837 171.634867337 83 185 c 1
 189 185 l 1
 187.863720268 178.698812397 187.31431855 172.579023452 187.31431855 166.670393753 c 0
 187.31431855 115.379264557 218.714380233 80 287 80 c 4
 369.478540444 80 436.94491302 125.165555048 436.94491302 224.921421712 c 0
 436.94491302 279.400479003 402.759810813 315 309 315 c 1
 320 380 l 1
 457.592827878 380 543.177418724 339.811816838 543.177418724 230.056140929 c 0
 543.177418724 74.6485949994 430.32421875 -20 279 -20 c 0
EndSplineSet
EndChar

StartChar: five
Encoding: 53 53 74
Width: 579
VWidth: 0
Flags: HMW
LayerCount: 2
Fore
SplineSet
295 700 m 1
 403 700 l 1
 282 417 l 1
 133 307 l 1
 295 700 l 1
295 700 m 1
 645 700 l 1
 629 605 l 1
 279 605 l 1
 295 700 l 1
285 -20 m 0
 156 -20 74 47 42 127 c 1
 141 191 l 1
 161 131 216 80 293 80 c 0
 379.184125215 80 470.986082147 156.795294248 470.986082147 271.672246031 c 0
 470.986082147 344.507224187 428.342059526 380 356 380 c 0
 279 380 213 357 133 307 c 1
 231 403 l 1
 288 463 374 475 433 475 c 4
 513.633789062 475 585.640625 400.923828125 585.640625 281.131835938 c 0
 585.640625 85.67578125 423.290039062 -20 285 -20 c 0
EndSplineSet
EndChar

StartChar: six
Encoding: 54 54 75
Width: 586
VWidth: 0
Flags: HMW
LayerCount: 2
Fore
SplineSet
448 700 m 1
 582 700 l 1
 279 375 l 1
 167 385 l 1
 448 700 l 1
167 385 m 0
 177.61937618 396.799306867 189.012217041 399.626423437 200.813468697 399.626423437 c 0
 211.672089958 399.626423437 222.876483712 397.23290408 234.142271421 397.23290408 c 0
 241.762761824 397.23290408 249.411343301 398.328069339 257 402 c 1
 306 430 333 463 416 463 c 0
 512.868429296 463 590.782226562 370.862304688 590.782226562 262.034179688 c 0
 590.782226562 85.6103515625 434.97265625 -20 299 -20 c 0
 164.709960938 -20 76.67578125 69.6044921875 76.67578125 191.727539062 c 0
 76.67578125 270.21875 123.33041754 336.037134818 167 385 c 0
188.9453125 196.56640625 m 4
 188.9453125 124.813476562 232.920898438 80 307 80 c 0
 399.051757812 80 481.010269949 152.082682822 481.010269949 263.070205048 c 0
 481.010269949 335.473425368 434.234375 382 370 382 c 0
 277.987304688 382 188.9453125 307.451171875 188.9453125 196.56640625 c 4
EndSplineSet
EndChar

StartChar: seven
Encoding: 55 55 76
Width: 525
VWidth: 0
Flags: HMW
LayerCount: 2
Fore
SplineSet
136 600 m 1
 153 700 l 1
 643 700 l 1
 556 600 l 1
 136 600 l 1
524 700 m 5
 643 700 l 1
 210 0 l 1
 91 0 l 5
 524 700 l 5
EndSplineSet
EndChar

StartChar: plus
Encoding: 43 43 77
Width: 640
VWidth: 0
Flags: HMW
LayerCount: 2
Fore
SplineSet
101 205 m 1
 119 305 l 1
 629 305 l 1
 611 205 l 1
 101 205 l 1
355 510 m 5
 465 510 l 5
 375 0 l 1
 265 0 l 1
 355 510 l 5
EndSplineSet
EndChar

StartChar: percent
Encoding: 37 37 79
Width: 811
VWidth: 0
Flags: HMW
LayerCount: 2
Fore
SplineSet
547 150 m 4
 538 99 566 55 618 55 c 4
 670 55 712 99 721 150 c 4
 730 201 703 245 651 245 c 4
 599 245 556 201 547 150 c 4
127 550 m 4
 144 644 230 720 330 720 c 4
 430 720 490 644 473 550 c 4
 456 456 370 380 270 380 c 4
 170 380 110 456 127 550 c 4
213 550 m 4
 204 499 231 455 283 455 c 4
 335 455 378 499 387 550 c 4
 396 601 369 645 317 645 c 4
 265 645 222 601 213 550 c 4
461 150 m 4
 478 244 564 320 664 320 c 4
 764 320 824 244 807 150 c 4
 790 56 704 -20 604 -20 c 4
 504 -20 444 56 461 150 c 4
706 700 m 5
 801 700 l 5
 228 0 l 5
 133 0 l 5
 706 700 l 5
EndSplineSet
EndChar

StartChar: ampersand
Encoding: 38 38 80
Width: 675
VWidth: 0
Flags: HMW
LayerCount: 2
Fore
SplineSet
611 567 m 1
 611 470 483 403 414 368 c 0
 332.734589287 326.865656306 166.018554688 287.651367188 166.018554688 178.62890625 c 4
 166.018554688 121.780273438 200.05078125 75 298 75 c 0
 435 75 569 226 648 326 c 1
 719 272 l 1
 622 152 480 -20 291 -20 c 0
 158.964663882 -20 55.9501953125 47.1630859375 55.9501953125 156.572265625 c 0
 55.9501953125 348.3125 281.204808909 394.690185289 359 425 c 0
 440 457 505 521 505 567 c 1
 611 567 l 1
304 344 m 2
 269.42784103 398.451150378 226.638671875 454.685546875 226.638671875 528.858398438 c 0
 226.638671875 649.700195312 329.98828125 721 446 721 c 0
 571 721 611 641 611 567 c 1
 505 567 l 1
 505 603 486 625 434 625 c 0
 362.607894032 625 336.343873888 583.932140837 336.343873888 528.209945435 c 0
 336.343873888 478.959683158 358.754882812 445.342773438 397 385 c 2
 659 0 l 1
 544 0 l 1
 304 344 l 2
EndSplineSet
EndChar

StartChar: question
Encoding: 63 63 81
Width: 557
VWidth: 0
Flags: HMW
LayerCount: 2
Fore
SplineSet
232 345 m 1
 349 345 l 1
 308 170 l 1
 221 170 l 1
 232 345 l 1
496.379199412 526.344071849 m 0
 496.379199412 590.494242544 459.844726562 625 389 625 c 0
 332 625 274 592 234 542 c 1
 163 597 l 1
 221 667 287 720 406 720 c 0
 525.790039062 720 603.849609375 638.350585938 603.849609375 532.079101562 c 0
 603.849609375 374.284179688 447.717773438 270 323 270 c 5
 285 345 l 1
 411.563072045 345 496.379199412 430.181798786 496.379199412 526.344071849 c 0
EndSplineSet
Refer: 54 46 N 1 0 0 1 110 0 2
EndChar

StartChar: parenleft
Encoding: 40 40 82
Width: 310
VWidth: 0
Flags: HMW
LayerCount: 2
Fore
SplineSet
333 780 m 5
 428 780 l 1
 332 630 271 460 241 290 c 0
 211 120 211 -50 255 -200 c 1
 160 -200 l 5
 106 -50 101 120 131 290 c 4
 161 460 227 630 333 780 c 5
EndSplineSet
EndChar

StartChar: asterisk
Encoding: 42 42 84
Width: 592
VWidth: 0
Flags: HMW
LayerCount: 2
Fore
SplineSet
574 613 m 1
 588 518 l 1
 390 472 l 1
 380 538 l 1
 574 613 l 1
517 377 m 1
 426 318 l 1
 353 484 l 1
 417 526 l 1
 517 377 l 1
278 318 m 1
 207 377 l 1
 360 526 l 1
 410 484 l 1
 278 318 l 1
186 518 m 1
 234 613 l 1
 402 538 l 1
 368 472 l 1
 186 518 l 1
369 700 m 1
 469 700 l 1
 420 505 l 1
 350 505 l 1
 369 700 l 1
EndSplineSet
EndChar

StartChar: less
Encoding: 60 60 85
Width: 640
VWidth: 0
Flags: HMW
LayerCount: 2
Fore
SplineSet
115 285 m 1
 210 275 l 1
 204 240 l 1
 106 230 l 1
 115 285 l 1
206 233 m 5
 115 285 l 1
 662 495 l 1
 644 388 l 5
 206 233 l 5
106 230 m 1
 215 285 l 1
 596 120 l 1
 579 20 l 1
 106 230 l 1
EndSplineSet
EndChar

StartChar: bracketleft
Encoding: 91 91 87
Width: 310
VWidth: 0
Flags: HMW
LayerCount: 2
Fore
SplineSet
146 -215 m 1
 161 -130 l 1
 267 -130 l 1
 252 -215 l 1
 146 -215 l 1
306 690 m 1
 322 785 l 1
 428 785 l 1
 412 690 l 1
 306 690 l 1
223 785 m 5
 327 785 l 1
 151 -215 l 1
 47 -215 l 5
 223 785 l 5
EndSplineSet
EndChar

StartChar: asciicircum
Encoding: 94 94 89
Width: 510
VWidth: 0
Flags: HMW
LayerCount: 2
Fore
SplineSet
350 710 m 1
 410 710 l 1
 399 645 l 5
 339 645 l 5
 350 710 l 1
349 645 m 5
 410 710 l 1
 536 460 l 1
 436 460 l 1
 349 645 l 5
350 710 m 1
 389 645 l 5
 236 460 l 1
 136 460 l 1
 350 710 l 1
EndSplineSet
EndChar

StartChar: grave
Encoding: 96 96 91
Width: 375
VWidth: 0
Flags: HMW
LayerCount: 2
Fore
SplineSet
176 660 m 1
 278 700 l 1
 405 540 l 1
 335 510 l 5
 176 660 l 1
EndSplineSet
EndChar

StartChar: braceleft
Encoding: 123 123 92
Width: 346
VWidth: 0
Flags: HMW
LayerCount: 2
Fore
SplineSet
155 340 m 1
 137 240 l 1
 107 240 l 1
 125 340 l 1
 155 340 l 1
150 310 m 1
 259 310 265 179 249 90 c 1
 151 130 l 1
 164 206 135 230 107 240 c 1
 107 240 144 295 150 310 c 1
201 -200 m 5
 267 -110 l 1
 297 -110 l 1
 281 -200 l 1
 201 -200 l 5
117 -60 m 1
 153 140 l 1
 249 90 l 1
 222 -60 l 1
 117 -60 l 1
267 -110 m 1
 201 -200 l 5
 157 -200 100 -159 117 -60 c 1
 222 -60 l 1
 217 -86 232 -110 262 -110 c 2
 267 -110 l 1
125 340 m 1
 157 350 194 374 207 450 c 1
 319 490 l 1
 303 401 252 270 143 270 c 1
 143 286 125 340 125 340 c 1
374 780 m 1
 454 780 l 1
 438 690 l 1
 408 690 l 1
 374 780 l 1
241 640 m 1
 346 640 l 1
 319 490 l 1
 206 440 l 1
 241 640 l 1
408 690 m 1
 403 690 l 2
 373 690 351 666 346 640 c 1
 241 640 l 1
 258 739 330 780 374 780 c 1
 408 690 l 1
EndSplineSet
EndChar

StartChar: asciitilde
Encoding: 126 126 94
Width: 575
VWidth: 0
Flags: HMW
LayerCount: 2
Fore
SplineSet
183 176 m 1
 90 181 l 1
 89 188 89 196 91 205 c 0
 95 226 109 261 131 285 c 0
 163 320 201 337 253 337 c 0
 292 337 336 316 372 284 c 0
 398 261 406 252 424 252 c 0
 438 252 451 256 461 266 c 0
 468 274 472 282 474 296 c 0
 475 304 476 313 474 323 c 1
 572 318 l 1
 573 310 573 300 571 290 c 0
 567 270 556 232 535 209 c 0
 503 175 469 162 423 162 c 0
 389 162 349 183 312 215 c 0
 286 238 272 248 247 248 c 0
 228 248 212 242 202 232 c 0
 193 223 186 214 183 198 c 0
 182 191 181 184 183 176 c 1
EndSplineSet
EndChar

StartChar: sterling
Encoding: 163 163 97
Width: 536
VWidth: 0
Flags: HMW
LayerCount: 2
Fore
SplineSet
35 0 m 1
 163 100 l 1
 506 100 l 1
 488 0 l 1
 35 0 l 1
163 518 m 1
 276 520 l 1
 256 404 346 376 326 264 c 0
 307 158 210 70 132 50 c 1
 35 0 l 1
 151 102 206 161 222 249 c 0
 239 343 139 382 163 518 c 1
103 370 m 1
 463 370 l 1
 446 275 l 1
 86 275 l 1
 103 370 l 1
495 479 m 1
 504 552 487 616 401 616 c 0
 341 616 288 586 276 520 c 1
 163 518 l 1
 186 647 290 720 424 720 c 0
 567 720 607 602 596 512 c 5
 495 479 l 1
EndSplineSet
EndChar

StartChar: currency
Encoding: 164 164 98
Width: 585
VWidth: 0
Flags: HMW
LayerCount: 2
Fore
SplineSet
117 493 m 1
 198 563 l 1
 276 469 l 1
 194 400 l 1
 117 493 l 1
106 37 m 1
 49 107 l 1
 158 200 l 1
 216 131 l 1
 106 37 l 1
532 400 m 1
 475 469 l 1
 585 563 l 1
 642 493 l 1
 532 400 l 1
415 131 m 1
 496 200 l 1
 574 107 l 1
 493 37 l 1
 415 131 l 1
92 300 m 0
 117 439 254 550 389 550 c 0
 524 550 623 439 598 300 c 0
 573 161 436 50 301 50 c 0
 166 50 67 161 92 300 c 0
198 300 m 0
 183 214 228 145 318 145 c 0
 408 145 477 214 492 300 c 0
 507 386 462 455 372 455 c 0
 282 455 213 386 198 300 c 0
EndSplineSet
EndChar

StartChar: brokenbar
Encoding: 166 166 100
Width: 299
VWidth: 0
Flags: HMW
LayerCount: 2
Fore
SplineSet
223 695 m 1
 322 695 l 1
 277 445 l 5
 178 445 l 5
 223 695 l 1
244 255 m 1
 200 5 l 1
 101 5 l 1
 145 255 l 1
 244 255 l 1
EndSplineSet
EndChar

StartChar: section
Encoding: 167 167 101
Width: 408
VWidth: 0
Flags: HMW
LayerCount: 2
Fore
SplineSet
258 275 m 1
 308 275 342 323 349 363 c 1
 453 370 l 5
 436 271 351 240 252 240 c 1
 258 275 l 1
400 569 m 1
 387 607 356 624 319 624 c 0
 279 624 257 610 253 589 c 1
 153 589 l 1
 166 665 241 720 335 720 c 0
 428 720 474 671 483 620 c 1
 400 569 l 1
153 589 m 1
 253 589 l 1
 247 553 293 527 340 506 c 0
 401 479 465 437 453 370 c 5
 349 363 l 1
 358 413 318 424 269 445 c 0
 210 470 139 512 153 589 c 1
112 359 m 1
 214 369 l 1
 206 323 253 297 300 276 c 0
 361 249 426 217 411 130 c 1
 307 123 l 1
 316 173 276 184 227 205 c 0
 168 230 95 262 112 359 c 1
124 161 m 1
 126 105 171 75 228 75 c 0
 278 75 302 93 307 123 c 1
 411 130 l 1
 392 21 305 -20 206 -20 c 0
 121 -20 42 42 41 117 c 1
 124 161 l 1
308 454 m 1
 244 434 221 410 214 369 c 1
 112 359 l 1
 125 435 199 480 313 480 c 1
 308 454 l 1
EndSplineSet
EndChar

StartChar: copyright
Encoding: 169 169 103
Width: 800
VWidth: 0
Flags: HMW
LayerCount: 2
Fore
SplineSet
151.70703125 280.529296875 m 4
 151.70703125 143.377929688 253.900734018 40 407 40 c 4
 591.815740073 40 772.256303515 193.383465659 772.256303515 409.083787466 c 4
 772.256303515 556.440805619 669.233411001 660 516 660 c 4
 331.047298709 660 151.70703125 506.349609375 151.70703125 280.529296875 c 4
525 710 m 4
 705.657491465 710 828.28125 591.579101562 828.28125 409.326171875 c 4
 828.28125 165.708007812 615.55488572 -10 398 -10 c 4
 217.475395267 -10 95.6826477176 108.246805796 95.6826477176 280.293573388 c 4
 95.6826477176 534.026968249 307.31072675 710 525 710 c 4
EndSplineSet
Refer: 3 67 N 0.6 0 0 0.6 196 140 2
EndChar

StartChar: registered
Encoding: 174 174 104
Width: 800
VWidth: 0
Flags: HMW
LayerCount: 2
Fore
SplineSet
151.70703125 280.529296875 m 0
 151.70703125 143.377929688 253.900734018 40 407 40 c 0
 591.815740073 40 772.256303515 193.383465659 772.256303515 409.083787466 c 0
 772.256303515 556.440805619 669.233411001 660 516 660 c 0
 331.047298709 660 151.70703125 506.349609375 151.70703125 280.529296875 c 0
525 710 m 0
 705.657491465 710 828.28125 591.579101562 828.28125 409.326171875 c 0
 828.28125 165.708007812 615.55488572 -10 398 -10 c 0
 217.475395267 -10 95.6826477176 108.246805796 95.6826477176 280.293573388 c 0
 95.6826477176 534.026968249 307.31072675 710 525 710 c 0
EndSplineSet
Refer: 13 82 S 0.6 0 0 0.6 256 150 2
EndChar

StartChar: logicalnot
Encoding: 172 172 110
Width: 620
VWidth: 0
Flags: HMW
LayerCount: 2
Fore
SplineSet
570 375 m 5
 665 375 l 5
 625 175 l 5
 530 175 l 5
 570 375 l 5
EndSplineSet
Refer: 62 45 N 2.45 0 0 1 52.75 100 2
EndChar

StartChar: plusminus
Encoding: 177 177 113
Width: 615
VWidth: 0
Flags: HMW
LayerCount: 2
Fore
SplineSet
77 70 m 5
 91 150 l 5
 576 150 l 5
 562 70 l 5
 77 70 l 5
124 335 m 5
 138 415 l 5
 623 415 l 5
 609 335 l 5
 124 335 l 5
366 570 m 5
 451 570 l 5
 382 180 l 5
 297 180 l 5
 366 570 l 5
EndSplineSet
EndChar

StartChar: acute
Encoding: 180 180 116
Width: 375
VWidth: 0
Flags: HMW
LayerCount: 2
Fore
SplineSet
431 660 m 1
 230 510 l 1
 160 540 l 1
 333 700 l 5
 431 660 l 1
EndSplineSet
EndChar

StartChar: paragraph
Encoding: 182 182 118
Width: 598
VWidth: 0
Flags: HMW
LayerCount: 2
Fore
SplineSet
396 615 m 5
 411 700 l 1
 611 700 l 1
 596 615 l 5
 396 615 l 5
571 700 m 1
 661 700 l 1
 499 -220 l 1
 409 -220 l 1
 571 700 l 1
411 700 m 1
 501 700 l 1
 339 -220 l 1
 249 -220 l 1
 411 700 l 1
336 270 m 1
 211 270 121 346 146 485 c 0
 171 624 286 700 411 700 c 1
 336 270 l 1
EndSplineSet
EndChar

StartChar: cedilla
Encoding: 184 184 121
Width: 350
Flags: HMW
LayerCount: 2
Fore
SplineSet
186 60 m 1
 257 60 l 1
 201.799804688 -53.7998046875 l 1
 106.799804688 -107.799804688 l 1
 186 60 l 1
275.200195312 -126 m 5
 218.400390625 -126 l 1
 218.400390625 -102.400390625 202.200195312 -90 168.200195312 -90 c 0
 158 -90 129.400390625 -91.7998046875 106.799804688 -107.799804688 c 1
 150.799804688 -68.2001953125 l 1
 176.400390625 -52.2001953125 188.799804688 -52 202.200195312 -52 c 0
 235.200195312 -52 275.200195312 -76.599609375 275.200195312 -126 c 5
275.200195312 -126 m 5
 275.200195312 -187.400390625 233.200195312 -230 168.200195312 -230 c 0
 130.799804688 -230 97.400390625 -217.799804688 69.7998046875 -189.799804688 c 1
 112 -152.400390625 l 1
 130.599609375 -168.400390625 142 -176 168.200195312 -176 c 0
 202.200195312 -176 218.400390625 -149.599609375 218.400390625 -126 c 1
 275.200195312 -126 l 5
EndSplineSet
EndChar

StartChar: multiply
Encoding: 215 215 123
Width: 596
VWidth: 0
Flags: HMW
LayerCount: 2
Fore
SplineSet
324 273 m 1
 369 273 l 1
 362 232 l 1
 317 232 l 1
 324 273 l 1
307 212 m 1
 391 283 l 1
 557 88 l 1
 467 12 l 1
 307 212 l 1
129 422 m 1
 219 498 l 1
 379 298 l 1
 295 227 l 1
 129 422 l 1
381 227 m 1
 323 298 l 5
 553 498 l 5
 615 422 l 1
 381 227 l 1
133 12 m 1
 71 88 l 5
 305 283 l 5
 363 212 l 1
 133 12 l 1
EndSplineSet
EndChar

StartChar: Thorn
Encoding: 222 222 125
Width: 590
VWidth: 0
Flags: HMW
LayerCount: 2
Fore
SplineSet
318 130 m 5
 336 230 l 1
 426 230 485 264 500 350 c 0
 515 436 468 470 378 470 c 1
 396 570 l 5
 561 570 635 489 610 350 c 0
 585 211 483 130 318 130 c 5
150 130 m 1
 168 230 l 1
 336 230 l 1
 318 130 l 1
 150 130 l 1
210 470 m 1
 228 570 l 1
 396 570 l 1
 378 470 l 1
 210 470 l 1
203 700 m 1
 313 700 l 1
 190 0 l 1
 80 0 l 1
 203 700 l 1
EndSplineSet
EndChar

StartChar: circumflex
Encoding: 710 710 128
Width: 480
VWidth: 0
Flags: HMW
LayerCount: 2
Fore
SplineSet
324 684 m 1
 372 750 l 1
 516 600 l 1
 441 554 l 1
 324 684 l 1
372 750 m 1
 403 677 l 5
 240 547 l 5
 176 600 l 1
 372 750 l 1
EndSplineSet
EndChar

StartChar: ogonek
Encoding: 731 731 129
Width: 260
VWidth: 0
Flags: HMW
LayerCount: 2
Fore
SplineSet
184 -130 m 5
 217 -180 l 5
 202 -200 172 -220 129 -220 c 4
 45 -220 6 -179 6 -120 c 5
 86 -100 l 5
 86 -136 104 -150 134 -150 c 4
 160 -150 170 -143 184 -130 c 5
86 -100 m 5
 6 -120 l 5
 6 -61 67.7509765625 -11 137.750976562 25 c 5
 178.750976562 0 l 5
 126.690429688 -22.27734375 86.296875 -62.6220703125 86 -100 c 5
EndSplineSet
EndChar

StartChar: tilde
Encoding: 732 732 130
Width: 530
VWidth: 0
Flags: HMW
LayerCount: 2
Fore
SplineSet
190 625 m 1
 209 674 260 717 315 717 c 0
 354 717 379 697 393 687 c 0
 414 673 431 660 449 660 c 4
 468 660 493 676 519 708 c 1
 567 665 l 1
 545 628 492 582 442 582 c 0
 408 582 389 595 368 607 c 0
 348 619 326 639 301 639 c 0
 265 639 250 603 247 588 c 1
 190 625 l 1
EndSplineSet
EndChar

StartChar: ring
Encoding: 730 730 131
Width: 278
VWidth: 0
Flags: HMW
LayerCount: 2
Fore
SplineSet
175 785 m 4
 175 844.5 216.5 885 279 885 c 4
 341.5 885 383 844.5 383 785 c 4
 383 725.5 341.5 685 279 685 c 4
 216.5 685 175 725.5 175 785 c 4
225.5 785 m 4
 225.5 752 244 727.5 279 727.5 c 4
 314 727.5 332.5 752 332.5 785 c 4
 332.5 818 314 842.5 279 842.5 c 4
 244 842.5 225.5 818 225.5 785 c 4
EndSplineSet
EndChar

StartChar: quoteright
Encoding: 8217 8217 138
Width: 295
VWidth: 0
Flags: HMW
LayerCount: 2
Fore
SplineSet
263 700 m 1
 378 700 l 1
 233 470 l 5
 163 470 l 1
 263 700 l 1
EndSplineSet
EndChar

StartChar: perthousand
Encoding: 8240 8240 143
Width: 1221
VWidth: 0
Flags: HMW
LayerCount: 2
Fore
SplineSet
957 150 m 4
 948 99 976 55 1028 55 c 4
 1080 55 1122 99 1131 150 c 4
 1140 201 1113 245 1061 245 c 4
 1009 245 966 201 957 150 c 4
871 150 m 4
 888 244 974 320 1074 320 c 4
 1174 320 1234 244 1217 150 c 4
 1200 56 1114 -20 1014 -20 c 4
 914 -20 854 56 871 150 c 4
547 150 m 4
 538 99 566 55 618 55 c 4
 670 55 712 99 721 150 c 4
 730 201 703 245 651 245 c 4
 599 245 556 201 547 150 c 4
127 550 m 4
 144 644 230 720 330 720 c 4
 430 720 490 644 473 550 c 4
 456 456 370 380 270 380 c 4
 170 380 110 456 127 550 c 4
213 550 m 4
 204 499 231 455 283 455 c 4
 335 455 378 499 387 550 c 4
 396 601 369 645 317 645 c 4
 265 645 222 601 213 550 c 4
461 150 m 4
 478 244 564 320 664 320 c 4
 764 320 824 244 807 150 c 4
 790 56 704 -20 604 -20 c 4
 504 -20 444 56 461 150 c 4
706 700 m 5
 801 700 l 5
 228 0 l 5
 133 0 l 5
 706 700 l 5
EndSplineSet
EndChar

StartChar: guilsinglleft
Encoding: 8249 8249 144
Width: 350
VWidth: 0
Flags: HMW
LayerCount: 2
Fore
SplineSet
156 230 m 5
 85 255 l 1
 316 490 l 1
 363 440 l 5
 156 230 l 5
85 255 m 1
 158 283 l 1
 289 63 l 1
 234 20 l 1
 85 255 l 1
EndSplineSet
EndChar

StartChar: uni2031
Encoding: 8241 8241 146
Width: 1631
VWidth: 0
Flags: HMW
LayerCount: 2
Fore
SplineSet
1367 150 m 4
 1358 99 1386 55 1438 55 c 4
 1490 55 1532 99 1541 150 c 4
 1550 201 1523 245 1471 245 c 4
 1419 245 1376 201 1367 150 c 4
1281 150 m 4
 1298 244 1384 320 1484 320 c 4
 1584 320 1644 244 1627 150 c 4
 1610 56 1524 -20 1424 -20 c 4
 1324 -20 1264 56 1281 150 c 4
957 150 m 0
 948 99 976 55 1028 55 c 0
 1080 55 1122 99 1131 150 c 0
 1140 201 1113 245 1061 245 c 0
 1009 245 966 201 957 150 c 0
871 150 m 0
 888 244 974 320 1074 320 c 0
 1174 320 1234 244 1217 150 c 0
 1200 56 1114 -20 1014 -20 c 0
 914 -20 854 56 871 150 c 0
547 150 m 0
 538 99 566 55 618 55 c 0
 670 55 712 99 721 150 c 0
 730 201 703 245 651 245 c 0
 599 245 556 201 547 150 c 0
127 550 m 0
 144 644 230 720 330 720 c 0
 430 720 490 644 473 550 c 0
 456 456 370 380 270 380 c 0
 170 380 110 456 127 550 c 0
213 550 m 0
 204 499 231 455 283 455 c 0
 335 455 378 499 387 550 c 0
 396 601 369 645 317 645 c 0
 265 645 222 601 213 550 c 0
461 150 m 0
 478 244 564 320 664 320 c 0
 764 320 824 244 807 150 c 0
 790 56 704 -20 604 -20 c 0
 504 -20 444 56 461 150 c 0
706 700 m 1
 801 700 l 1
 228 0 l 1
 133 0 l 1
 706 700 l 1
EndSplineSet
EndChar

StartChar: Euro
Encoding: 8364 8364 148
Width: 700
VWidth: 0
Flags: HMW
LayerCount: 2
Fore
SplineSet
287 350 m 4
 258 187 316 80 444 80 c 4
 501 80 557 102 605 142 c 5
 584 21 l 5
 534 -5 480 -20 426 -20 c 4
 242 -20 145 141 182 350 c 4
 219 559 373 720 557 720 c 4
 611 720 660 705 700 679 c 5
 678 558 l 5
 644 598 596 620 539 620 c 4
 411 620 316 513 287 350 c 4
EndSplineSet
Refer: 62 45 S 2.375 0 0 0.64 13.125 159 2
Refer: 62 45 S 2.505 0 0 0.64 12.475 279 2
EndChar

StartChar: fraction
Encoding: 8260 8260 149
Width: 705
VWidth: 0
Flags: HMW
LayerCount: 2
Fore
SplineSet
683 700 m 1
 768 700 l 1
 145 0 l 5
 60 0 l 1
 683 700 l 1
EndSplineSet
EndChar

StartChar: AE
Encoding: 198 198 191
Width: 1030
VWidth: 0
Flags: HMW
LayerCount: 2
Fore
SplineSet
296 190 m 5
 313 290 l 5
 613 290 l 5
 596 190 l 5
 296 190 l 5
573 700 m 5
 665 660 l 5
 145 0 l 5
 20 0 l 5
 573 700 l 5
607 0 m 5
 625 100 l 5
 978 100 l 5
 960 0 l 5
 607 0 l 5
721 600 m 5
 573 700 l 5
 1083 700 l 5
 1066 600 l 5
 721 600 l 5
665 330 m 5
 683 430 l 5
 1016 430 l 5
 998 330 l 5
 665 330 l 5
658 700 m 5
 768 700 l 5
 645 0 l 5
 535 0 l 5
 658 700 l 5
EndSplineSet
EndChar

StartChar: germandbls
Encoding: 223 223 219
Width: 605
VWidth: 0
Flags: HMW
LayerCount: 2
Fore
SplineSet
177 606 m 1
 282 606 l 1
 175 0 l 1
 70 0 l 1
 177 606 l 1
342 425 m 5
 355 500 l 1
 465 500 514 540 524 596 c 0
 536 662 506 705 416 705 c 0
 356 705 295 682 282 606 c 1
 177 606 l 1
 196 715 308 800 433 800 c 4
 588 800 651 715 632 606 c 0
 611 487 517 425 342 425 c 5
302 85 m 1
 382 85 481 129 500 235 c 0
 515 321 445 385 335 385 c 1
 348 460 l 5
 523 460 630 364 605 225 c 0
 580 86 440 -10 285 -10 c 5
 302 85 l 1
EndSplineSet
EndChar

StartChar: ae
Encoding: 230 230 220
Width: 825
VWidth: 0
Flags: HMW
LayerCount: 2
Fore
SplineSet
408 330 m 5
 474 330 l 5
 439 130 l 5
 373 130 l 5
 408 330 l 5
391 230 m 1
 428 270 l 1
 524 270 l 1
 507 230 l 1
 391 230 l 1
492 205 m 1
 507 289 l 1
 855 289 l 1
 859 205 l 1
 492 205 l 1
859 205 m 1
 759 250 l 1
 774 336 742 390 662 390 c 0
 592 390 517 336 504 260 c 1
 391 230 l 1
 416 369 533 480 678 480 c 0
 818 480 893 384 867 239 c 0
 866 231 863 218 859 205 c 1
391 230 m 1
 497 230 l 1
 480 134 528 75 606 75 c 0
 663 75 721 96 761 146 c 1
 831 97 l 1
 773 27 698 -20 589 -20 c 0
 434 -20 366 91 391 230 c 1
171 338 m 1
 146 419 l 1
 184 444 255 480 338 480 c 0
 453 480 530 429 513 330 c 1
 408 330 l 1
 415 370 371 383 321 383 c 0
 255 383 196 354 171 338 c 1
151 140 m 0
 143 94 191 71 236 71 c 0
 316 71 367 94 382 180 c 1
 439 130 l 1
 423 41 314 -20 199 -20 c 0
 104 -20 29 21 48 130 c 0
 67 237 171 291 282 291 c 0
 360 291 405 264 425 240 c 1
 415 182 l 1
 371 207 331 215 283 215 c 0
 209 215 158 178 151 140 c 0
EndSplineSet
EndChar

StartChar: dotlessi
Encoding: 305 305 227
Width: 260
VWidth: 0
Flags: HMW
LayerCount: 2
Fore
SplineSet
158 460 m 1
 264 460 l 5
 183 0 l 5
 77 0 l 1
 158 460 l 1
EndSplineSet
EndChar

StartChar: kgreenlandic
Encoding: 312 312 228
Width: 485
VWidth: 0
Flags: HMW
LayerCount: 2
Fore
SplineSet
188 270 m 1
 318 270 l 1
 490 0 l 1
 360 0 l 1
 188 270 l 1
421 460 m 1
 551 460 l 1
 318 270 l 1
 188 270 l 1
 421 460 l 1
146 460 m 5
 251 460 l 5
 170 0 l 1
 65 0 l 1
 146 460 l 5
EndSplineSet
EndChar

StartChar: thorn
Encoding: 254 254 243
Width: 595
VWidth: 0
Flags: HMW
LayerCount: 2
Fore
SplineSet
606 230 m 0
 578 71 453 -20 328 -20 c 0
 213 -20 149 81 175 230 c 0
 201 379 302 480 417 480 c 0
 542 480 634 389 606 230 c 0
500 230 m 0
 517 326 465 385 380 385 c 0
 310 385 230 336 211 230 c 0
 192 124 255 75 325 75 c 0
 410 75 483 134 500 230 c 0
131 -220 m 1
 26 -220 l 1
 203 780 l 1
 308 780 l 1
 131 -220 l 1
EndSplineSet
EndChar

StartChar: breve
Encoding: 728 728 247
Width: 546
VWidth: 0
Flags: HMW
LayerCount: 2
Fore
SplineSet
255 850 m 1
 341 850 l 1
 336 824 341 780 411 780 c 0
 481 780 500 824 505 850 c 1
 591 850 l 1
 577 771 511 700 406 700 c 4
 301 700 241 771 255 850 c 1
EndSplineSet
EndChar

StartChar: eth
Encoding: 240 240 302
Width: 556
VWidth: 0
Flags: HMW
LayerCount: 2
Fore
SplineSet
369 700 m 1
 540 385 l 1
 434 375 l 1
 245 700 l 1
 369 700 l 1
572 230 m 0
 546 81 414 -20 274 -20 c 0
 134 -20 40 81 66 230 c 0
 89 359 210 463 319 463 c 0
 402 463 417 430 456 402 c 1
 482 387 524 415 540 385 c 0
 560 348 582 287 572 230 c 0
463 230 m 0
 479 321 430 382 345 382 c 0
 260 382 191 321 175 230 c 0
 159 139 207 80 292 80 c 0
 377 80 447 139 463 230 c 0
EndSplineSet
Refer: 62 45 S 1.5 0 0 1 167.5 320 2
EndChar

StartChar: OE
Encoding: 338 338 303
Width: 994
VWidth: 0
Flags: HW
LayerCount: 2
Fore
SplineSet
672 700 m 1
 654 600 l 1
 491 600 l 1
 499 700 l 1
 672 700 l 1
566 100 m 1
 549 0 l 1
 386 0 l 1
 393 100 l 1
 566 100 l 1
491 600 m 1
 329.677734375 600 196.212890625 487.607421875 196.212890625 288.47265625 c 0
 196.212890625 165.203125 274.874023438 100 393 100 c 1
 386 0 l 1
 198.306640625 0 85.23046875 108.465820312 85.23046875 286.143554688 c 0
 85.23046875 562.283203125 279.448242188 700 499 700 c 1
 491 600 l 1
581 0 m 1
 599 100 l 1
 952 100 l 1
 934 0 l 1
 581 0 l 1
687 600 m 1
 704 700 l 1
 1057 700 l 1
 1040 600 l 1
 687 600 l 1
639 330 m 1
 657 430 l 1
 990 430 l 1
 972 330 l 1
 639 330 l 1
632 700 m 1
 744 700 l 1
 621 0 l 1
 509 0 l 1
 632 700 l 1
EndSplineSet
EndChar

StartChar: oe
Encoding: 339 339 304
Width: 915
VWidth: 0
Flags: HW
LayerCount: 2
Fore
SplineSet
358.32421875 480 m 0
 502.73828125 480 551.61328125 350.237304688 551.61328125 287.907226562 c 0
 551.61328125 137.932617188 448.763671875 -20 289.32421875 -20 c 0
 175.034179688 -20 67 59.6044921875 67 191.727539062 c 0
 67 371.810546875 218.754882812 480 358.32421875 480 c 0
174.357421875 197.244140625 m 0
 174.357421875 124.013671875 221.938476562 75 296.32421875 75 c 0
 388.0234375 75 474.249023438 151.63671875 474.249023438 262.319335938 c 0
 474.249023438 335.791015625 425.857421875 385 351.32421875 385 c 0
 259.478515625 385 174.357421875 308.044921875 174.357421875 197.244140625 c 0
562.32421875 205 m 1
 577.32421875 289 l 1
 925.32421875 289 l 1
 929.32421875 205 l 1
 562.32421875 205 l 1
929.32421875 205 m 1
 829.32421875 250 l 1
 831.713867188 263.700195312 832.91015625 276.587890625 832.91015625 288.575195312 c 0
 832.91015625 351.834960938 804.580078125 390 737.32421875 390 c 0
 670.435546875 390 593.98046875 340.693359375 576.418945312 270 c 1
 594.32421875 270 l 1
 577.32421875 230 l 1
 567.32421875 230 l 1
 565.016601562 216.969726562 563.907226562 204.622070312 563.907226562 193.009765625 c 0
 563.907226562 119.071289062 598.911132812 75 666.32421875 75 c 0
 723.32421875 75 788.32421875 99 828.32421875 149 c 1
 911.32421875 97 l 1
 853.32421875 27 778.32421875 -20 659.32421875 -20 c 0
 525.249023438 -20 476.26953125 63.0537109375 476.26953125 185.44140625 c 4
 476.26953125 358.712890625 585.649414062 480 743.32421875 480 c 0
 864.87109375 480 942.423828125 407.639648438 942.423828125 293.67578125 c 0
 942.423828125 262.252929688 938.12109375 233.588867188 929.32421875 205 c 1
EndSplineSet
EndChar

StartChar: a.alt
Encoding: 65536 -1 305
Width: 515
VWidth: 0
Flags: HW
LayerCount: 2
Fore
SplineSet
416 320 m 1
 523 330 l 1
 464 0 l 1
 359 0 l 1
 416 320 l 1
180 328 m 1
 155 409 l 1
 193 434 264 470 347 470 c 0
 462 470 540 429 523 330 c 1
 416 320 l 1
 423 360 380 373 330 373 c 0
 264 373 205 344 180 328 c 1
160 130 m 4
 160 97.9892578125 200 81 245 81 c 0
 325 81 376 94 391 180 c 1
 398 130 l 1
 382 41 294 -10 199 -10 c 0
 114 -10 57 29.3564453125 57 110 c 0
 57 227 181 291 292 291 c 0
 370 291 415 264 435 240 c 1
 425 182 l 1
 381 207 340 215 292 215 c 0
 218 215 160 188 160 130 c 4
EndSplineSet
EndChar
